<?xml version="1.0" standalone="no"?>
<!DOCTYPE svg PUBLIC "-//W3C//DTD SVG 20010904//EN"
 "http://www.w3.org/TR/2001/REC-SVG-20010904/DTD/svg10.dtd">
<svg version="1.0" xmlns="http://www.w3.org/2000/svg"
 width="100.000000pt" height="100.000000pt" viewBox="0 0 100.000000 100.000000"
 preserveAspectRatio="xMidYMid meet">
<metadata>
Created by potrace 1.11, written by Peter Selinger 2001-2013
</metadata>
<g transform="translate(0.000000,100.000000) scale(0.100000,-0.100000)"
fill="#000000" stroke="none">
<path d="M253 834 c-21 -22 -24 -31 -19 -64 5 -35 1 -47 -39 -110 -33 -49 -56
-74 -80 -84 -58 -25 -72 -80 -30 -121 13 -14 34 -25 47 -25 18 0 33 -16 66
-71 36 -61 41 -75 36 -109 -5 -33 -2 -42 19 -64 33 -33 71 -33 104 0 24 24 27
50 12 89 -2 6 18 44 44 86 45 69 51 75 77 71 21 -3 36 3 54 21 29 29 33 62 12
93 -14 19 -11 27 34 94 49 74 49 74 95 75 l46 1 44 -73 c44 -72 44 -73 27
-102 -14 -25 -15 -34 -4 -65 12 -34 11 -37 -33 -104 -41 -62 -48 -68 -75 -64
-21 3 -35 -3 -54 -21 -33 -33 -33 -71 -1 -102 31 -32 69 -32 102 1 22 22 24
31 19 65 -6 35 -1 46 40 109 36 54 52 70 71 70 32 0 73 42 73 75 0 31 -41 75
-69 75 -14 0 -34 23 -70 81 -41 67 -49 86 -44 114 4 27 0 39 -20 59 -33 33
-71 33 -104 0 -20 -20 -24 -32 -20 -59 5 -29 -2 -45 -46 -111 -40 -59 -60 -79
-87 -88 -46 -15 -69 -55 -54 -94 10 -27 7 -36 -38 -103 -47 -70 -52 -74 -85
-73 -33 1 -39 7 -79 69 -39 63 -41 70 -28 89 18 27 18 52 -2 85 -16 27 -15 29
29 98 42 65 47 70 75 65 23 -3 37 2 56 21 33 33 33 71 1 102 -31 32 -69 32
-102 -1z m81 -20 c9 -8 16 -22 16 -29 0 -18 -27 -45 -45 -45 -18 0 -45 27 -45
45 0 18 27 45 45 45 7 0 21 -7 29 -16z m380 0 c9 -8 16 -22 16 -29 0 -7 -7
-21 -16 -29 -8 -9 -22 -16 -29 -16 -7 0 -21 7 -29 16 -9 8 -16 22 -16 29 0 7
7 21 16 29 8 9 22 16 29 16 7 0 21 -7 29 -16z m-550 -280 c9 -8 16 -22 16 -29
0 -18 -27 -45 -45 -45 -18 0 -45 27 -45 45 0 18 27 45 45 45 7 0 21 -7 29 -16z
m360 0 c9 -8 16 -22 16 -29 0 -18 -27 -45 -45 -45 -7 0 -21 7 -29 16 -9 8 -16
22 -16 29 0 7 7 21 16 29 8 9 22 16 29 16 7 0 21 -7 29 -16z m370 0 c9 -8 16
-22 16 -29 0 -7 -7 -21 -16 -29 -8 -9 -22 -16 -29 -16 -18 0 -45 27 -45 45 0
18 27 45 45 45 7 0 21 -7 29 -16z m-560 -270 c9 -8 16 -22 16 -29 0 -7 -7 -21
-16 -29 -8 -9 -22 -16 -29 -16 -18 0 -45 27 -45 45 0 7 7 21 16 29 8 9 22 16
29 16 7 0 21 -7 29 -16z m378 -1 c10 -9 18 -22 18 -29 0 -17 -28 -44 -45 -44
-18 0 -45 27 -45 45 0 16 27 45 42 45 6 0 20 -7 30 -17z"/>
</g>
</svg>
